<?xml version="1.0" encoding="utf-8"?>
<!-- Generator: Adobe Illustrator 24.2.3, SVG Export Plug-In . SVG Version: 6.00 Build 0)  -->
<svg version="1.1" id="Layer_1" xmlns="http://www.w3.org/2000/svg" xmlns:xlink="http://www.w3.org/1999/xlink" x="0px" y="0px"
	 viewBox="0 0 83 88.5" style="enable-background:new 0 0 83 88.5;" xml:space="preserve">
<style type="text/css">
	.st0{fill:#C6B47C;}
</style>
<path class="st0" d="M52.5,46c12-6.1,16.8-20.7,10.7-32.7C57.1,1.3,42.5-3.5,30.5,2.6S13.7,23.3,19.8,35.3
	c2.3,4.6,6.1,8.4,10.7,10.7C12.5,51,0,67.3,0,86c0,1.4,1.1,2.5,2.5,2.5S5,87.4,5,86l0,0c0-20.2,16.3-36.5,36.5-36.5S78,65.8,78,86
	l0,0c0,1.4,1.1,2.5,2.5,2.5S83,87.4,83,86C83,67.3,70.5,51,52.5,46z M60.8,24.3c0,10.7-8.6,19.3-19.3,19.3
	c-10.7,0-19.3-8.6-19.3-19.3S30.8,5,41.5,5c0,0,0,0,0,0C52.2,5,60.8,13.7,60.8,24.3L60.8,24.3z"/>
</svg>
