<?xml version="1.0" encoding="utf-8"?>
<!-- Generator: Adobe Illustrator 24.2.3, SVG Export Plug-In . SVG Version: 6.00 Build 0)  -->
<svg version="1.1" id="Layer_1" xmlns="http://www.w3.org/2000/svg" xmlns:xlink="http://www.w3.org/1999/xlink" x="0px" y="0px"
	 viewBox="0 0 76 86.8" style="enable-background:new 0 0 76 86.8;" xml:space="preserve">
<style type="text/css">
	.st0{fill:#C9B274;}
</style>
<path class="st0" d="M75.5,82.8L57.1,58.9C71,46.2,72,24.6,59.3,10.7S25-4.2,11.1,8.6S-3.8,42.8,8.9,56.7
	C20.3,69.2,39.2,71.5,53.2,62l18.4,23.8c0.5,0.6,1.2,1,2,1c0.5,0,1-0.2,1.5-0.5C76.1,85.5,76.3,83.9,75.5,82.8
	C75.5,82.8,75.5,82.8,75.5,82.8z M34,63C18,63,5,50,5,34S18,5,34,5s29,13,29,29S50,63,34,63z"/>
</svg>
