<?xml version="1.0" encoding="utf-8"?>
<!-- Generator: Adobe Illustrator 24.2.3, SVG Export Plug-In . SVG Version: 6.00 Build 0)  -->
<svg version="1.1" id="Layer_1" xmlns="http://www.w3.org/2000/svg" xmlns:xlink="http://www.w3.org/1999/xlink" x="0px" y="0px"
	 viewBox="0 0 95.7 86" style="enable-background:new 0 0 95.7 86;" xml:space="preserve">
<style type="text/css">
	.st0{fill:#C6B47C;}
</style>
<path class="st0" d="M95.6,83.2l-10-70.7c-0.1-1.4-1.3-2.4-2.7-2.3c-1.4,0.1-2.4,1.3-2.3,2.7l0,0c0,0.1,0,0.2,0,0.4L90.3,81H5.4
	L15,13.2c0-0.1,0-0.2,0-0.4c0.1-1.4-0.9-2.6-2.3-2.7s-2.6,0.9-2.7,2.3L0,83.2c-0.2,1.4,0.8,2.6,2.1,2.8c0.1,0,0.2,0,0.4,0h90.7
	c1.4,0,2.5-1.1,2.5-2.5C95.7,83.4,95.7,83.3,95.6,83.2z"/>
<path class="st0" d="M27.5,25.3c1.4,0,2.5-1.1,2.5-2.5l0,0C30.2,13,38.4,5.2,48.3,5.4c9.5,0.2,17.2,7.9,17.4,17.4l0,0
	c0,1.4,1.1,2.5,2.5,2.5s2.5-1.1,2.5-2.5C70.4,10.2,60,0.2,47.4,0.5C35.1,0.7,25.3,10.6,25,22.8C25,24.2,26.1,25.3,27.5,25.3z"/>
</svg>
