<?xml version="1.0" encoding="utf-8"?>
<!-- Generator: Adobe Illustrator 24.2.3, SVG Export Plug-In . SVG Version: 6.00 Build 0)  -->
<svg version="1.1" id="Layer_1" xmlns="http://www.w3.org/2000/svg" xmlns:xlink="http://www.w3.org/1999/xlink" x="0px" y="0px"
	 viewBox="0 0 24 24" style="enable-background:new 0 0 24 24;" xml:space="preserve">
<style type="text/css">
	.st0{fill:#C9B274;}
</style>
<path class="st0" d="M0.7,2.2C0.3,2.2,0,1.7,0,1.1S0.3,0,0.7,0h22.7C23.7,0,24,0.5,24,1.1s-0.3,1.1-0.7,1.1H0.7z M0.7,13.1
	C0.3,13.1,0,12.6,0,12s0.3-1.1,0.7-1.1h22.7c0.4,0,0.7,0.5,0.7,1.1s-0.3,1.1-0.7,1.1H0.7z M0.7,24C0.3,24,0,23.5,0,22.9
	c0-0.6,0.3-1.1,0.7-1.1h22.7c0.4,0,0.7,0.5,0.7,1.1c0,0.6-0.3,1.1-0.7,1.1H0.7z"/>
</svg>
