<?xml version="1.0" encoding="utf-8"?>
<!-- Generator: Adobe Illustrator 19.0.0, SVG Export Plug-In . SVG Version: 6.00 Build 0)  -->
<svg version="1.1" id="Calque_1" xmlns="http://www.w3.org/2000/svg" xmlns:xlink="http://www.w3.org/1999/xlink" x="0px" y="0px"
	 viewBox="0 0 485 93.5" style="enable-background:new 0 0 485 93.5;" xml:space="preserve">
<style type="text/css">
	.st0{fill:#C6B47C;}
	.st1{fill-rule:evenodd;clip-rule:evenodd;fill:#C6B47C;}
</style>
<g>
	<g>
		<path class="st0" d="M184.9,74.3c0.9,0,1.7,0.1,2.4,0.4c0.7,0.3,1.3,0.6,1.8,1.1c0.5,0.5,0.9,1.1,1.1,1.8c0.3,0.7,0.4,1.5,0.4,2.3
			c0,0.8-0.1,1.6-0.4,2.3c-0.3,0.7-0.7,1.3-1.2,1.7c-0.5,0.5-1.2,0.8-1.9,1.1c-0.8,0.3-1.6,0.4-2.6,0.4h-12.1v7.7h-1.7V74.3H184.9z
			 M184.8,83.7c1.2,0,2.2-0.3,2.9-1c0.7-0.7,1-1.7,1-2.9c0-2.6-1.5-3.9-4.6-3.9h-11.8v7.8H184.8z"/>
		<path class="st0" d="M222.9,93.1l-2.6-4.9h-13.3l-2.6,4.9h-2l10-18.8h2.5l9.9,18.8H222.9z M213.8,75.9h-0.2l-5.7,10.7h11.5
			L213.8,75.9z"/>
		<path class="st0" d="M257.3,93.1l-5.9-7.7h-10.3v7.7h-1.7V74.3h14.2c0.9,0,1.7,0.1,2.4,0.4c0.7,0.3,1.3,0.6,1.8,1.1
			c0.5,0.5,0.9,1.1,1.1,1.8c0.3,0.7,0.4,1.5,0.4,2.3c0,1.6-0.5,2.9-1.5,3.9c-1,0.9-2.4,1.5-4.2,1.6l5.7,7.7H257.3z M253.5,83.7
			c1.2,0,2.2-0.3,2.9-1c0.7-0.7,1-1.7,1-2.9c0-2.6-1.5-3.9-4.5-3.9h-11.8v7.8H253.5z"/>
		<path class="st0" d="M276,93.1V74.3h1.7v18.8H276z"/>
		<path class="st0" d="M311.7,77.3c-1.2-0.7-2.5-1.1-3.7-1.4c-1.3-0.3-2.6-0.4-4.1-0.4c-2.4,0-4.2,0.3-5.4,1
			c-1.2,0.6-1.8,1.5-1.8,2.7c0,0.6,0.2,1.1,0.5,1.5c0.3,0.4,0.8,0.7,1.4,0.9c0.6,0.2,1.3,0.4,2.2,0.5c0.9,0.1,1.9,0.2,3.1,0.3
			c1.6,0.1,3.1,0.2,4.4,0.3c1.3,0.1,2.4,0.4,3.3,0.8c1.8,0.8,2.8,2.2,2.8,4.2c0,1.9-0.8,3.4-2.5,4.5c-1.6,1.1-4.1,1.6-7.2,1.6
			c-2.1,0-4.1-0.2-5.8-0.7c-1.7-0.5-3.2-1.2-4.6-2.1l1-1.4c1.4,0.9,2.8,1.6,4.3,2c1.5,0.4,3,0.6,4.7,0.6c2.6,0,4.6-0.4,6-1.2
			c1.4-0.8,2.1-1.8,2.1-3.2c0-0.7-0.2-1.2-0.5-1.7c-0.3-0.4-0.8-0.8-1.4-1.1c-0.6-0.3-1.4-0.5-2.4-0.6c-1-0.1-2.1-0.2-3.4-0.3
			c-1.6-0.1-3-0.2-4.2-0.2c-1.2-0.1-2.2-0.3-3.1-0.6c-0.9-0.3-1.6-0.8-2.1-1.4c-0.5-0.6-0.7-1.4-0.7-2.3c0-1.7,0.8-3,2.3-4
			c1.6-1,3.8-1.4,6.8-1.4c2,0,3.7,0.2,5.2,0.5c1.5,0.3,2.8,0.9,3.9,1.6L311.7,77.3z"/>
	</g>
	<g>
		<path class="st1" d="M124,46.7c15,0,19-12.5,19-21.7c0-9.3-4.9-21.7-19-21.7c-13.6,0-18.9,12.4-18.9,21.7
			C105,34.2,108.9,46.7,124,46.7L124,46.7z M419.1,1.3h26.5c29,0,39.5,9.2,39.5,23.8c0,15-10.6,23.3-36.4,23.3h-29.6V1.3L419.1,1.3z
			 M435.3,45.2h7c19.3,0,26-7.4,26-19.9c0-12.1-6.4-20.8-25.2-20.8h-7.8V45.2L435.3,45.2z M227.8,1.3h6.6l-23.8,25.6v21.6h-16.3
			V27.8L169.4,1.3h19.4L208,22.5L227.8,1.3L227.8,1.3z M306.1,48.5h-18.2l-5.3-8.6l-33.2,0l-5.5,8.6h-6.1l31.7-47.9h5.8L306.1,48.5
			L306.1,48.5z M266.5,13.5L252,35.8h28.2L266.5,13.5L266.5,13.5z M328.8,48.5V1.3l42,0c16.1,0,21.8,6.7,21.8,13.8
			c0,8-8.2,11.5-21.5,12.4l-0.5,0l22.1,20.9h-19.4L352.3,28h-8v20.5H328.8L328.8,48.5z M356.4,24.5c14.7,0,19.9-3.1,19.9-10.4
			c0-5.5-3.8-9.7-19.5-9.7h-12.5v20.1h6.4H356.4L356.4,24.5z M64.4,48.7c-8.7,0-16.9,1.2-27.9,1.2C15.4,49.8,0,39.4,0,25.3
			C0,10.3,16.5,0,37.7,0c10.5,0,20.2,3,26,8.6l-5.3,3c-4.1-4.6-8.9-8.5-17.8-8.5c-16.6,0-23.6,8.3-23.6,22.1
			c0,11.8,6.4,21.4,22.4,21.4c4.4,0,9.1-2,10.5-5l0-15.7H38.4v-4.1h25.9V48.7L64.4,48.7z M124,0c21,0,35.7,11.1,35.7,24.9
			c0,13.9-14.3,24.9-35.7,24.9c-21.3,0-35.6-11.1-35.6-24.9C88.4,11.1,103,0,124,0L124,0z"/>
	</g>
</g>
</svg>
